HIERARCHY
ROOT Hips
{
	OFFSET -351.999878 -572.954773 89.312325
	CHANNELS 6 Xposition Yposition Zposition Zrotation Yrotation Xrotation
	JOINT Spine
	{
		OFFSET 0.000000 2.080078 8.814247
		CHANNELS 6 Xposition Yposition Zposition Zrotation Yrotation Xrotation
		JOINT Spine1
		{
			OFFSET 0.000000 0.000000 8.844139
			CHANNELS 6 Xposition Yposition Zposition Zrotation Yrotation Xrotation
			JOINT Spine2
			{
				OFFSET 0.000000 0.000000 11.682266
				CHANNELS 6 Xposition Yposition Zposition Zrotation Yrotation Xrotation
				JOINT Spine3
				{
					OFFSET 0.000000 0.000000 11.746696
					CHANNELS 6 Xposition Yposition Zposition Zrotation Yrotation Xrotation
					JOINT Neck
					{
						OFFSET 0.000000 0.000000 17.658264
						CHANNELS 6 Xposition Yposition Zposition Zrotation Yrotation Xrotation
						JOINT Neck1
						{
							OFFSET 0.000000 0.000000 5.101517
							CHANNELS 6 Xposition Yposition Zposition Zrotation Yrotation Xrotation
							JOINT Head
							{
								OFFSET 0.000000 0.000000 5.101517
								CHANNELS 6 Xposition Yposition Zposition Zrotation Yrotation Xrotation
								JOINT HeadEnd
								{
									OFFSET 0.000000 0.000000 11.655090
									CHANNELS 6 Xposition Yposition Zposition Zrotation Yrotation Xrotation
									End Site
									{
										OFFSET 0.000000 0.000000 0.100006
									}
								}
							}
						}
					}
					JOINT RightShoulder
					{
						OFFSET -2.625397 0.000000 11.175217
						CHANNELS 6 Xposition Yposition Zposition Zrotation Yrotation Xrotation
						JOINT RightArm
						{
							OFFSET 0.000000 0.000000 10.434708
							CHANNELS 6 Xposition Yposition Zposition Zrotation Yrotation Xrotation
							JOINT RightForeArm
							{
								OFFSET 0.000000 0.000000 29.628418
								CHANNELS 6 Xposition Yposition Zposition Zrotation Yrotation Xrotation
								JOINT RightHand
								{
									OFFSET 0.000000 0.000000 22.857605
									CHANNELS 6 Xposition Yposition Zposition Zrotation Yrotation Xrotation
									JOINT RightHandThumb1
									{
										OFFSET -2.867310 -2.944275 3.959564
										CHANNELS 6 Xposition Yposition Zposition Zrotation Yrotation Xrotation
										JOINT RightHandThumb2
										{
											OFFSET 0.000000 0.000000 3.350403
											CHANNELS 6 Xposition Yposition Zposition Zrotation Yrotation Xrotation
											JOINT RightHandThumb3
											{
												OFFSET 0.000000 0.000000 3.756516
												CHANNELS 6 Xposition Yposition Zposition Zrotation Yrotation Xrotation
												JOINT RightHandThumb4
												{
													OFFSET 0.000000 0.000000 3.147339
													CHANNELS 6 Xposition Yposition Zposition Zrotation Yrotation Xrotation
													End Site
													{
														OFFSET 0.000000 0.000000 0.100006
													}
												}
											}
										}
									}
									JOINT RightHandIndex1
									{
										OFFSET -0.086761 -2.345276 10.030899
										CHANNELS 6 Xposition Yposition Zposition Zrotation Yrotation Xrotation
										JOINT RightHandIndex2
										{
											OFFSET 0.000000 0.000000 4.061096
											CHANNELS 6 Xposition Yposition Zposition Zrotation Yrotation Xrotation
											JOINT RightHandIndex3
											{
												OFFSET 0.000000 0.000000 3.248871
												CHANNELS 6 Xposition Yposition Zposition Zrotation Yrotation Xrotation
												JOINT RightHandIndex4
												{
													OFFSET 0.000000 0.000000 2.639709
													CHANNELS 6 Xposition Yposition Zposition Zrotation Yrotation Xrotation
													End Site
													{
														OFFSET 0.000000 0.000000 0.100006
													}
												}
											}
										}
									}
									JOINT RightHandMiddle1
									{
										OFFSET 0.104095 -0.006775 9.502945
										CHANNELS 6 Xposition Yposition Zposition Zrotation Yrotation Xrotation
										JOINT RightHandMiddle2
										{
											OFFSET 0.000000 0.000000 4.568726
											CHANNELS 6 Xposition Yposition Zposition Zrotation Yrotation Xrotation
											JOINT RightHandMiddle3
											{
												OFFSET 0.000000 0.000000 3.654984
												CHANNELS 6 Xposition Yposition Zposition Zrotation Yrotation Xrotation
												JOINT RightHandMiddle4
												{
													OFFSET 0.000000 0.000000 2.741241
													CHANNELS 6 Xposition Yposition Zposition Zrotation Yrotation Xrotation
													End Site
													{
														OFFSET 0.000000 0.000000 0.100006
													}
												}
											}
										}
									}
									JOINT RightHandRing1
									{
										OFFSET 0.086761 2.267456 8.921707
										CHANNELS 6 Xposition Yposition Zposition Zrotation Yrotation Xrotation
										JOINT RightHandRing2
										{
											OFFSET 0.000000 0.000000 4.061096
											CHANNELS 6 Xposition Yposition Zposition Zrotation Yrotation Xrotation
											JOINT RightHandRing3
											{
												OFFSET 0.000000 0.000000 3.654984
												CHANNELS 6 Xposition Yposition Zposition Zrotation Yrotation Xrotation
												JOINT RightHandRing4
												{
													OFFSET 0.000000 0.000000 2.741241
													CHANNELS 6 Xposition Yposition Zposition Zrotation Yrotation Xrotation
													End Site
													{
														OFFSET 0.000000 0.000000 0.100006
													}
												}
											}
										}
									}
									JOINT RightHandPinky1
									{
										OFFSET -0.173492 4.467224 7.976990
										CHANNELS 6 Xposition Yposition Zposition Zrotation Yrotation Xrotation
										JOINT RightHandPinky2
										{
											OFFSET 0.000000 0.000000 3.350403
											CHANNELS 6 Xposition Yposition Zposition Zrotation Yrotation Xrotation
											JOINT RightHandPinky3
											{
												OFFSET 0.000000 0.000000 2.842758
												CHANNELS 6 Xposition Yposition Zposition Zrotation Yrotation Xrotation
												JOINT RightHandPinky4
												{
													OFFSET 0.000000 0.000000 2.639709
													CHANNELS 6 Xposition Yposition Zposition Zrotation Yrotation Xrotation
													End Site
													{
														OFFSET 0.000000 0.000000 0.100006
													}
												}
											}
										}
									}
									JOINT RightForeArmEnd
									{
										OFFSET 0.000000 0.000000 0.000000
										CHANNELS 6 Xposition Yposition Zposition Zrotation Yrotation Xrotation
										End Site
										{
											OFFSET 0.000000 0.000000 0.100006
										}
									}
								}
								JOINT RightArmEnd
								{
									OFFSET 0.000000 0.000000 0.000000
									CHANNELS 6 Xposition Yposition Zposition Zrotation Yrotation Xrotation
									End Site
									{
										OFFSET 0.000000 0.000000 0.100006
									}
								}
							}
						}
					}
					JOINT LeftShoulder
					{
						OFFSET 2.625397 0.000000 11.175217
						CHANNELS 6 Xposition Yposition Zposition Zrotation Yrotation Xrotation
						JOINT LeftArm
						{
							OFFSET 0.000000 0.000000 10.813629
							CHANNELS 6 Xposition Yposition Zposition Zrotation Yrotation Xrotation
							JOINT LeftForeArm
							{
								OFFSET 0.000000 0.000000 28.724777
								CHANNELS 6 Xposition Yposition Zposition Zrotation Yrotation Xrotation
								JOINT LeftHand
								{
									OFFSET 0.644379 0.328857 25.716171
									CHANNELS 6 Xposition Yposition Zposition Zrotation Yrotation Xrotation
									JOINT LeftHandThumb1
									{
										OFFSET 2.867310 -2.944275 3.959564
										CHANNELS 6 Xposition Yposition Zposition Zrotation Yrotation Xrotation
										JOINT LeftHandThumb2
										{
											OFFSET 0.000000 0.000000 3.350403
											CHANNELS 6 Xposition Yposition Zposition Zrotation Yrotation Xrotation
											JOINT LeftHandThumb3
											{
												OFFSET 0.000000 0.000000 3.756516
												CHANNELS 6 Xposition Yposition Zposition Zrotation Yrotation Xrotation
												JOINT LeftHandThumb4
												{
													OFFSET 0.000000 0.000000 3.100006
													CHANNELS 6 Xposition Yposition Zposition Zrotation Yrotation Xrotation
													End Site
													{
														OFFSET 0.000000 0.000000 0.100006
													}
												}
											}
										}
									}
									JOINT LeftHandIndex1
									{
										OFFSET 0.086761 -2.345276 10.030899
										CHANNELS 6 Xposition Yposition Zposition Zrotation Yrotation Xrotation
										JOINT LeftHandIndex2
										{
											OFFSET 0.000000 0.000000 4.061096
											CHANNELS 6 Xposition Yposition Zposition Zrotation Yrotation Xrotation
											JOINT LeftHandIndex3
											{
												OFFSET 0.000000 0.000000 3.248871
												CHANNELS 6 Xposition Yposition Zposition Zrotation Yrotation Xrotation
												JOINT LeftHandIndex4
												{
													OFFSET 0.000000 0.000000 2.639709
													CHANNELS 6 Xposition Yposition Zposition Zrotation Yrotation Xrotation
													End Site
													{
														OFFSET 0.000000 0.000000 0.100006
													}
												}
											}
										}
									}
									JOINT LeftHandMiddle1
									{
										OFFSET -0.104095 -0.006775 9.502945
										CHANNELS 6 Xposition Yposition Zposition Zrotation Yrotation Xrotation
										JOINT LeftHandMiddle2
										{
											OFFSET 0.000000 0.000000 4.568726
											CHANNELS 6 Xposition Yposition Zposition Zrotation Yrotation Xrotation
											JOINT LeftHandMiddle3
											{
												OFFSET 0.000000 0.000000 3.654984
												CHANNELS 6 Xposition Yposition Zposition Zrotation Yrotation Xrotation
												JOINT LeftHandMiddle4
												{
													OFFSET 0.000000 0.000000 2.741241
													CHANNELS 6 Xposition Yposition Zposition Zrotation Yrotation Xrotation
													End Site
													{
														OFFSET 0.000000 0.000000 0.100006
													}
												}
											}
										}
									}
									JOINT LeftHandRing1
									{
										OFFSET -0.086761 2.267456 8.921707
										CHANNELS 6 Xposition Yposition Zposition Zrotation Yrotation Xrotation
										JOINT LeftHandRing2
										{
											OFFSET 0.000000 0.000000 4.061096
											CHANNELS 6 Xposition Yposition Zposition Zrotation Yrotation Xrotation
											JOINT LeftHandRing3
											{
												OFFSET 0.000000 0.000000 3.654984
												CHANNELS 6 Xposition Yposition Zposition Zrotation Yrotation Xrotation
												JOINT LeftHandRing4
												{
													OFFSET 0.000000 0.000000 2.741241
													CHANNELS 6 Xposition Yposition Zposition Zrotation Yrotation Xrotation
													End Site
													{
														OFFSET 0.000000 0.000000 0.100006
													}
												}
											}
										}
									}
									JOINT LeftHandPinky1
									{
										OFFSET 0.173492 4.467224 7.976990
										CHANNELS 6 Xposition Yposition Zposition Zrotation Yrotation Xrotation
										JOINT LeftHandPinky2
										{
											OFFSET 0.000000 0.000000 3.350403
											CHANNELS 6 Xposition Yposition Zposition Zrotation Yrotation Xrotation
											JOINT LeftHandPinky3
											{
												OFFSET 0.000000 0.000000 2.842758
												CHANNELS 6 Xposition Yposition Zposition Zrotation Yrotation Xrotation
												JOINT LeftHandPinky4
												{
													OFFSET 0.000000 0.000000 2.639709
													CHANNELS 6 Xposition Yposition Zposition Zrotation Yrotation Xrotation
													End Site
													{
														OFFSET 0.000000 0.000000 0.100006
													}
												}
											}
										}
									}
									JOINT LeftForeArmEnd
									{
										OFFSET 0.000000 0.000000 0.000000
										CHANNELS 6 Xposition Yposition Zposition Zrotation Yrotation Xrotation
										End Site
										{
											OFFSET 0.000000 0.000000 0.100006
										}
									}
								}
								JOINT LeftArmEnd
								{
									OFFSET 0.000000 0.000000 0.000000
									CHANNELS 6 Xposition Yposition Zposition Zrotation Yrotation Xrotation
									End Site
									{
										OFFSET 0.000000 0.000000 0.100006
									}
								}
							}
						}
					}
				}
			}
		}
	}
	JOINT RightUpLeg
	{
		OFFSET -11.289948 0.000000 0.000000
		CHANNELS 6 Xposition Yposition Zposition Zrotation Yrotation Xrotation
		JOINT RightLeg
		{
			OFFSET 0.000000 0.000000 -38.200329
			CHANNELS 6 Xposition Yposition Zposition Zrotation Yrotation Xrotation
			JOINT RightFoot
			{
				OFFSET 0.000000 0.000000 -39.900856
				CHANNELS 6 Xposition Yposition Zposition Zrotation Yrotation Xrotation
				JOINT RightToeBase
				{
					OFFSET 0.000000 -15.261658 0.000002
					CHANNELS 6 Xposition Yposition Zposition Zrotation Yrotation Xrotation
					JOINT RightToeBaseEnd
					{
						OFFSET 0.000000 -7.370728 0.000000
						CHANNELS 6 Xposition Yposition Zposition Zrotation Yrotation Xrotation
						End Site
						{
							OFFSET 0.000000 0.000000 0.100000
						}
					}
				}
				JOINT RightLegEnd
				{
					OFFSET 0.000000 0.000000 0.000000
					CHANNELS 6 Xposition Yposition Zposition Zrotation Yrotation Xrotation
					End Site
					{
						OFFSET 0.000000 0.000000 0.100000
					}
				}
			}
			JOINT RightUpLegEnd
			{
				OFFSET 0.000000 0.000000 0.000000
				CHANNELS 6 Xposition Yposition Zposition Zrotation Yrotation Xrotation
				End Site
				{
					OFFSET 0.000000 0.000000 0.099998
				}
			}
		}
	}
	JOINT LeftUpLeg
	{
		OFFSET 11.315674 0.000000 0.000000
		CHANNELS 6 Xposition Yposition Zposition Zrotation Yrotation Xrotation
		JOINT LeftLeg
		{
			OFFSET 0.000000 0.000000 -38.200329
			CHANNELS 6 Xposition Yposition Zposition Zrotation Yrotation Xrotation
			JOINT LeftFoot
			{
				OFFSET 0.000000 0.000000 -39.900856
				CHANNELS 6 Xposition Yposition Zposition Zrotation Yrotation Xrotation
				JOINT LeftToeBase
				{
					OFFSET 0.000000 -15.261658 0.000002
					CHANNELS 6 Xposition Yposition Zposition Zrotation Yrotation Xrotation
					JOINT LeftToeBaseEnd
					{
						OFFSET 0.000000 -7.539978 0.000000
						CHANNELS 6 Xposition Yposition Zposition Zrotation Yrotation Xrotation
						End Site
						{
							OFFSET 0.000000 0.000000 0.100000
						}
					}
				}
				JOINT LeftLegEnd
				{
					OFFSET 0.000000 0.000000 0.000000
					CHANNELS 6 Xposition Yposition Zposition Zrotation Yrotation Xrotation
					End Site
					{
						OFFSET 0.000000 0.000000 0.100000
					}
				}
			}
			JOINT LeftUpLegEnd
			{
				OFFSET 0.000000 0.000000 0.000000
				CHANNELS 6 Xposition Yposition Zposition Zrotation Yrotation Xrotation
				End Site
				{
					OFFSET 0.000000 0.000000 0.099998
				}
			}
		}
	}
}
MOTION
Frames: 2
Frame Time: 0.016667
-58.404999 -23.356812 85.199318 25.066892 -0.940267 -0.123168 0.000006 2.080078 8.814257 -0.331804 -4.062893 14.967320 -0.000007 0.000007 8.844158 -1.108174 -2.117877 10.170531 -0.000012 -0.000034 11.682259 -1.184721 -1.308929 14.348489 -0.000010 -0.000019 11.746703 0.434938 -2.193878 8.403759 -0.000011 0.000019 17.658245 0.562550 -18.636024 -6.205078 0.000006 -0.000008 5.101538 7.153151 -3.805220 -8.258392 -0.000010 0.000009 5.101542 -1.293096 0.362374 -10.897873 0.000013 0.000001 11.655068 -0.000000 -0.000001 0.000001 -2.625391 -0.000008 11.175204 18.917957 -89.365717 1.806659 0.000015 0.000023 10.434738 -70.024657 -14.462483 62.560981 0.000035 -0.000029 29.628410 5.102088 0.810896 8.664740 0.000080 0.000050 22.857563 -39.729704 -13.738412 -3.849304 -2.867321 -2.944260 3.959549 31.788076 -23.322415 42.843571 -0.000008 -0.000008 3.350342 -26.178694 11.072746 -44.740533 -0.000019 -0.000008 3.756527 -17.288360 9.935608 -30.478090 -0.000008 0.000087 3.147341 -0.000005 -0.000000 -0.000000 -0.086761 -2.345266 10.030937 -36.099964 -59.215432 35.619993 -0.000013 -0.000023 4.061085 -2.860627 -45.047457 8.092629 0.000017 -0.000027 3.248875 -3.360664 -45.047474 8.092656 0.000006 -0.000068 2.639714 0.000001 -0.000000 -0.000001 0.104084 -0.006798 9.502914 -24.639769 -59.204490 27.092845 -0.000003 -0.000030 4.568705 -0.617378 -43.508312 2.821330 -0.000004 0.000007 3.654997 -1.119549 -43.508332 2.824058 0.000004 -0.000011 2.741236 0.000001 0.000001 -0.000001 0.086769 2.267443 8.921745 -9.787327 -62.827714 19.222473 -0.000025 0.000019 4.061096 0.350874 -43.785624 -3.360788 -0.000014 -0.000019 3.654984 1.350891 -43.785641 -3.360815 0.000039 0.000004 2.741230 -0.000001 0.000001 0.000001 -0.173508 4.467266 7.976978 8.269634 -62.784718 10.573327 -0.000042 -0.000009 3.350395 1.565801 -40.649427 -9.607365 -0.000002 -0.000027 2.842743 3.565806 -40.649389 -9.607359 0.000001 -0.000017 2.639701 0.000001 -0.000001 0.000000 -0.000010 0.000017 -0.000003 -0.000002 0.000004 0.000001 0.000006 0.000011 -0.000019 -0.000001 -0.000001 0.000001 2.625374 -0.000023 11.175229 -16.190115 83.297203 -0.123896 -0.000031 0.000028 10.813644 76.696044 23.548220 65.707123 -0.000050 -0.000032 28.724766 3.123487 -0.345656 34.681655 0.644303 0.328835 25.716175 20.554245 10.500620 -15.233851 2.867256 -2.944275 3.959549 -32.430886 26.206065 38.950199 -0.000008 -0.000046 3.350426 32.457667 -10.558203 -54.776498 -0.000069 -0.000008 3.756500 21.577421 -10.761491 -37.395115 -0.000026 0.000009 3.100006 -0.000002 0.000001 -0.000004 0.086788 -2.345239 10.030951 9.309400 80.789042 1.442780 0.000015 -0.000011 4.061127 -6.170147 56.664533 -12.337193 -0.000027 0.000006 3.248901 -6.670146 56.664533 -12.337220 -0.000021 -0.000006 2.639726 0.000001 -0.000002 0.000000 -0.104126 -0.006740 9.502945 29.136002 76.944472 25.800816 -0.000002 -0.000041 4.568733 -1.749152 55.106048 -4.309028 0.000011 -0.000037 3.655024 -2.249168 55.106028 -4.309077 -0.000031 -0.000004 2.741253 0.000000 -0.000001 -0.000000 -0.086762 2.267476 8.921749 56.500783 72.698088 57.971750 -0.000015 -0.000000 4.061125 1.810468 56.260934 5.254180 -0.000013 -0.000029 3.655048 2.810478 56.260934 5.254110 -0.000027 -0.000003 2.741254 0.000000 -0.000000 0.000000 0.173504 4.467201 7.976955 58.388801 63.219418 66.032104 -0.000019 -0.000011 3.350426 5.482808 52.995134 14.945847 -0.000015 0.000002 2.842796 7.482788 52.995127 14.945818 -0.000054 0.000000 2.639704 -0.000001 -0.000003 -0.000001 -0.000008 0.000058 0.000007 0.000000 -0.000001 -0.000000 -0.000040 0.000019 0.000007 -0.000003 0.000002 0.000001 -11.289926 -0.000021 -0.000015 -3.716454 -3.379403 -15.528423 0.000040 0.000074 -38.200321 -1.076776 0.712080 33.619687 0.000008 -0.000043 -39.900856 -8.253958 8.814544 2.424773 0.000043 -15.261686 0.000017 1.322727 0.460196 -8.852269 0.000009 -7.370671 0.000002 0.000001 0.000000 0.000000 0.000041 0.000012 0.000002 -0.000002 -0.000000 0.000000 0.000052 0.000055 0.000004 0.000001 0.000000 -0.000001 11.315676 0.000040 0.000014 0.026298 2.172379 -14.367477 -0.000003 0.000128 -38.200306 0.480052 -0.307774 32.523267 -0.000015 0.000036 -39.900856 6.364742 -5.408670 2.739802 0.000014 -15.261661 0.000010 -1.220312 0.864531 -13.692223 0.000021 -7.539998 -0.000002 0.000003 0.000000 0.000000 -0.000004 0.000004 -0.000000 -0.000001 0.000000 0.000001 -0.000012 0.000054 -0.000005 0.000001 0.000000 -0.000001 
-58.421661 -23.370117 85.273483 25.116491 -1.007073 0.110841 -0.000007 2.080079 8.814249 -0.311243 -4.046683 14.894836 0.000041 0.000012 8.844131 -1.090809 -2.135956 10.120564 -0.000004 0.000026 11.682283 -1.199912 -1.351336 14.212177 0.000000 0.000015 11.746690 0.455825 -2.223283 8.318704 0.000031 0.000029 17.658257 0.476660 -18.652371 -6.133105 0.000004 0.000015 5.101511 7.034046 -3.766647 -8.134068 -0.000032 -0.000001 5.101492 -1.353889 0.369237 -10.764645 -0.000007 -0.000012 11.655087 0.000001 -0.000000 0.000000 -2.625340 0.000009 11.175220 18.826025 -89.369330 1.774885 0.000031 0.000023 10.434738 -70.337179 -14.811807 62.501456 -0.000010 -0.000025 29.628410 4.867413 0.772124 8.662441 -0.000017 0.000038 22.857571 -38.843675 -14.040496 -3.727168 -2.867296 -2.944260 3.959579 31.788086 -23.322340 42.843704 -0.000015 0.000000 3.350365 -26.178737 11.072623 -44.740775 -0.000023 -0.000008 3.756523 -17.288247 9.935682 -30.477998 -0.000012 0.000005 3.147339 -0.000001 -0.000001 0.000001 -0.086781 -2.345261 10.030914 -35.858131 -59.045729 35.703123 -0.000011 -0.000006 4.061108 -2.837921 -44.934233 8.060518 -0.000004 -0.000016 3.248878 -3.337880 -44.934175 8.060460 -0.000013 0.000018 2.639696 -0.000002 0.000001 0.000000 0.104084 -0.006784 9.502914 -24.548296 -59.110008 27.325558 0.000004 -0.000003 4.568714 -0.616100 -43.448042 2.819458 0.000013 -0.000014 3.654978 -1.118436 -43.448049 2.822186 -0.000009 0.000004 2.741249 0.000000 0.000000 -0.000001 0.086769 2.267437 8.921692 -9.833890 -62.907784 19.535702 -0.000017 -0.000024 4.061108 0.347283 -43.828439 -3.360928 -0.000019 -0.000014 3.655014 1.348852 -43.828494 -3.357874 0.000008 0.000002 2.741234 0.000000 -0.000001 0.000000 -0.173492 4.467264 7.977001 8.273873 -62.992430 10.681991 -0.000004 -0.000031 3.350418 1.592755 -40.769987 -9.648715 0.000008 0.000015 2.842773 3.592773 -40.769959 -9.648718 -0.000011 0.000002 2.639684 0.000000 -0.000000 -0.000001 -0.000013 0.000015 -0.000023 -0.000000 -0.000003 -0.000001 0.000005 -0.000004 -0.000004 0.000001 0.000003 0.000001 2.625420 -0.000024 11.175202 -16.250813 83.236517 -0.136701 0.000015 0.000021 10.813622 75.643805 23.740148 65.246468 -0.000013 -0.000021 28.724794 3.172068 -0.448422 34.502844 0.644375 0.328846 25.716164 21.032009 10.413181 -15.258853 2.867282 -2.944336 3.959564 -32.376551 26.012255 39.209784 -0.000046 0.000000 3.350464 32.043231 -10.625961 -54.110524 -0.000038 -0.000015 3.756538 21.288262 -10.722387 -36.931656 -0.000046 0.000010 3.100019 -0.000001 -0.000000 -0.000001 0.086792 -2.345260 10.030960 8.953330 80.391852 0.901556 -0.000015 0.000000 4.061157 -6.071431 56.414586 -12.218877 -0.000027 -0.000006 3.248932 -6.571344 56.414187 -12.218759 -0.000045 0.000004 2.639719 -0.000000 0.000000 0.000001 -0.104137 -0.006763 9.502968 28.358585 76.636744 24.925010 0.000025 -0.000080 4.568741 -1.717500 54.863901 -4.273617 0.000016 -0.000079 3.655035 -2.217485 54.863833 -4.273205 -0.000042 0.000001 2.741269 0.000000 -0.000001 -0.000000 -0.086782 2.267479 8.921799 55.636054 72.522785 57.273192 -0.000029 0.000013 4.061144 1.775946 56.051179 5.216372 -0.000009 -0.000044 3.655031 2.775967 56.051135 5.215477 -0.000067 0.000001 2.741250 -0.000000 0.000002 0.000001 0.173500 4.467171 7.976994 57.747303 63.052167 65.814665 -0.000050 0.000002 3.350433 5.410481 52.831165 14.855153 -0.000027 0.000017 2.842789 7.410433 52.831165 14.855120 -0.000032 -0.000012 2.639720 0.000003 -0.000003 -0.000000 -0.000004 0.000002 0.000019 -0.000000 -0.000003 0.000001 -0.000018 -0.000010 0.000004 0.000001 0.000004 0.000000 -11.289902 -0.000008 0.000019 -3.732258 -3.341049 -15.596604 0.000023 0.000103 -38.200283 -1.073390 0.706298 33.306311 -0.000017 -0.000091 -39.900848 -8.266068 8.840350 2.548083 0.000015 -15.261745 0.000017 1.318643 0.460651 -8.895521 0.000005 -7.370680 0.000001 0.000002 0.000000 0.000000 0.000009 0.000010 0.000000 -0.000002 -0.000001 0.000000 0.000065 0.000052 -0.000002 0.000001 0.000000 -0.000000 11.315680 -0.000001 0.000009 -0.244187 2.221592 -14.383986 -0.000001 0.000014 -38.200314 0.475176 -0.298008 32.093399 0.000017 0.000074 -39.900852 6.590208 -5.338374 2.888028 -0.000003 -15.261721 0.000004 -1.220939 0.878134 -13.799907 -0.000000 -7.539985 -0.000001 0.000001 0.000000 0.000001 -0.000035 0.000006 -0.000001 -0.000001 0.000000 0.000000 0.000001 0.000010 -0.000006 -0.000002 0.000001 -0.000003 
